<svg style="position: absolute; width: 0; height: 0; overflow: hidden;" version="1.1" xmlns="http://www.w3.org/2000/svg" xmlns:xlink="http://www.w3.org/1999/xlink">
<defs>
<symbol id="icon-stackoverflow" viewBox="0 0 32 32">
<title>Stack Overflow</title>
<path d="M32 20v12h-32v-12h4v8h24v-8zM6 22h20v4h-20zM6.473 17.671l0.866-3.905 19.526 4.328-0.866 3.905zM8.739 9.642l1.69-3.625 18.126 8.452-1.69 3.625zM30.991 11.296l-2.435 3.173-15.867-12.175 1.761-2.294h1.82z"></path>
</symbol>
<symbol id="icon-github" viewBox="0 0 32 32">
<title>GitHub</title>
<path d="M16 0.395c-8.836 0-16 7.163-16 16 0 7.069 4.585 13.067 10.942 15.182 0.8 0.148 1.094-0.347 1.094-0.77 0-0.381-0.015-1.642-0.022-2.979-4.452 0.968-5.391-1.888-5.391-1.888-0.728-1.849-1.776-2.341-1.776-2.341-1.452-0.993 0.11-0.973 0.11-0.973 1.606 0.113 2.452 1.649 2.452 1.649 1.427 2.446 3.743 1.739 4.656 1.33 0.143-1.034 0.558-1.74 1.016-2.14-3.554-0.404-7.29-1.777-7.29-7.907 0-1.747 0.625-3.174 1.649-4.295-0.166-0.403-0.714-2.030 0.155-4.234 0 0 1.344-0.43 4.401 1.64 1.276-0.355 2.645-0.532 4.005-0.539 1.359 0.006 2.729 0.184 4.008 0.539 3.054-2.070 4.395-1.64 4.395-1.64 0.871 2.204 0.323 3.831 0.157 4.234 1.026 1.12 1.647 2.548 1.647 4.295 0 6.145-3.743 7.498-7.306 7.895 0.574 0.497 1.085 1.47 1.085 2.963 0 2.141-0.019 3.864-0.019 4.391 0 0.426 0.288 0.925 1.099 0.768 6.354-2.118 10.933-8.113 10.933-15.18 0-8.837-7.164-16-16-16z"></path>
</symbol>
<symbol id="icon-mastodon" viewBox="0 0 32 32">
<title>Mastodon</title>
<path d="M 15.9375 4.03125 C 12.917 4.0435 9.9179219 4.4269844 8.3574219 5.1464844 C 8.3574219 5.1464844 5 6.6748594 5 11.880859 C 5 18.077859 4.9955 25.860234 10.5625 27.365234 C 12.6945 27.938234 14.527953 28.061562 16.001953 27.976562 C 18.676953 27.825562 20 27.005859 20 27.005859 L 19.910156 25.029297 C 19.910156 25.029297 18.176297 25.640313 16.029297 25.570312 C 13.902297 25.495313 11.6615 25.335688 11.3125 22.679688 C 11.2805 22.432688 11.264625 22.182594 11.265625 21.933594 C 15.772625 23.052594 19.615828 22.420969 20.673828 22.292969 C 23.627828 21.933969 26.199344 20.081672 26.527344 18.388672 C 27.041344 15.720672 26.998047 11.880859 26.998047 11.880859 C 26.998047 6.6748594 23.646484 5.1464844 23.646484 5.1464844 C 22.000984 4.3779844 18.958 4.019 15.9375 4.03125 z M 12.705078 8.0019531 C 13.739953 8.0297031 14.762578 8.4927031 15.392578 9.4707031 L 16.001953 10.505859 L 16.609375 9.4707031 C 17.874375 7.5037031 20.709594 7.6264375 22.058594 9.1484375 C 23.302594 10.596438 23.025391 11.531 23.025391 18 L 23.025391 18.001953 L 20.578125 18.001953 L 20.578125 12.373047 C 20.578125 9.7380469 17.21875 9.6362812 17.21875 12.738281 L 17.21875 16 L 14.787109 16 L 14.787109 12.738281 C 14.787109 9.6362812 11.429688 9.7360938 11.429688 12.371094 L 11.429688 18 L 8.9765625 18 C 8.9765625 11.526 8.7043594 10.585438 9.9433594 9.1484375 C 10.622859 8.3824375 11.670203 7.9742031 12.705078 8.0019531 z"/>
</symbol>
<symbol id="icon-linkedin" viewBox="0 0 32 32">
<title>LinkedIn</title>
<path d="M12 12h5.535v2.837h0.079c0.77-1.381 2.655-2.837 5.464-2.837 5.842 0 6.922 3.637 6.922 8.367v9.633h-5.769v-8.54c0-2.037-0.042-4.657-3.001-4.657-3.005 0-3.463 2.218-3.463 4.509v8.688h-5.767v-18z"></path>
<path d="M2 12h6v18h-6v-18z"></path>
<path d="M8 7c0 1.657-1.343 3-3 3s-3-1.343-3-3c0-1.657 1.343-3 3-3s3 1.343 3 3z"></path>
</symbol>
<symbol id="icon-home" viewBox="0 0 32 32">
<title>Home</title>
<path d="M32 19l-6-6v-9h-4v5l-6-6-16 16v1h4v10h10v-6h4v6h10v-10h4z"></path>
</symbol>
</defs>
</svg>
